#N canvas 1457 300 591 468 10;
#X obj 485 40 loadbang;
#X obj 380 14 netreceive 4001;
#X obj 7 29 text define notes;
#X obj 454 116 text set notes;
#X msg 485 70 1e+15;
#X obj 380 70 route clear;
#X obj 380 164 text delete notes;
#X msg 380 114 -1;
#X obj 312 30 print net;
#X obj 131 196 cup;
#X obj 186 142 metro 500;
#X obj 185 61 bng 15 250 50 0 empty empty empty 17 7 0 10 -262144 -1
-1;
#X msg 131 59 stop;
#X obj 246 114 expr 60000 / $f1;
#X floatatom 246 89 5 0 0 0 - - -, f 5;
#X obj 184 367 makenote 100 400;
#X obj 184 407 noteout;
#X msg 246 61 160;
#X obj 246 30 loadbang;
#X obj 184 284 text sequence notes;
#X obj 9 249 loadbang;
#X msg 184 249 step;
#X obj 184 322 unpack f f;
#X obj 183 213 moses;
#X msg 76 266 line 0;
#X obj 247 196 text size notes;
#X obj 76 142 r counterreset;
#X msg 76 179 0;
#X obj 314 322 s counterreset;
#X obj 247 230 s counterreset;
#X obj 342 301 print done;
#X msg 293 344 200;
#X connect 0 0 4 0;
#X connect 1 0 5 0;
#X connect 1 0 8 0;
#X connect 4 0 3 1;
#X connect 5 0 7 0;
#X connect 5 1 3 0;
#X connect 7 0 6 0;
#X connect 9 0 23 0;
#X connect 10 0 9 0;
#X connect 10 0 25 0;
#X connect 11 0 10 0;
#X connect 12 0 10 0;
#X connect 13 0 10 1;
#X connect 14 0 13 0;
#X connect 15 0 16 0;
#X connect 15 1 16 1;
#X connect 17 0 14 0;
#X connect 18 0 17 0;
#X connect 19 0 22 0;
#X connect 19 1 28 0;
#X connect 19 1 30 0;
#X connect 20 0 24 0;
#X connect 21 0 19 0;
#X connect 22 0 15 0;
#X connect 22 1 15 1;
#X connect 23 0 21 0;
#X connect 23 1 29 0;
#X connect 24 0 19 0;
#X connect 25 0 23 1;
#X connect 26 0 27 0;
#X connect 27 0 9 0;
#X connect 27 0 24 0;
#X connect 27 0 21 0;
#X connect 31 0 15 2;
